<svg xmlns="http://www.w3.org/2000/svg" viewBox="0 0 900 600"><g><path d="M416 2c-38.4 4.6-72.2 15-105 32.2C230.6 76.4 173.8 152 156.1 240.5c-15.3 76.3-1.1 154 40.1 219.4 43.2 68.5 113.2 117.3 191.8 133.6 69.2 14.3 139.2 4.7 200.7-27.6 81.2-42.6 138.4-119.2 155.9-208.7 7.1-36.6 7.1-77.8 0-114.4C717.1 101.8 592.6-.6 449.5.1 438.1.2 424.7.9 416 2zm54 74.6c50.2 8.8 85 38.4 97.7 82.9 6.9 24.4 7.2 59 .7 84-3.2 12.3-10.8 30.3-17 40.1-4.1 6.4-13.4 18.4-21.5 27.6-7.9 8.9-8.7 10.3-10.2 16.5-.8 3.7-3 11.7-4.7 17.8-4.4 15.2-6 21.7-5.5 22.5.3.4 1.8 1 3.3 1.3 3.7.8 8.7 4.9 10.7 8.9 2.1 4.3 1.9 10.1-.5 14.8-2 4-8.5 9-11.6 9-.9 0-3 .7-4.7 1.5-1.8.8-12.9 5.1-24.7 9.5-11.8 4.4-22.4 8.5-23.5 9-1.1.5-9.9 3.9-19.5 7.5s-18.4 7-19.5 7.5c-4.3 2.1-20.6 7.9-23.8 8.5-5 1-10.8-1-14.7-5-3.1-3.2-3.5-4.2-3.8-10.3-.3-6.2-.1-7 2.6-10.8 2.6-3.6 4.4-4.7 12.9-8 5.4-2 11.8-4.5 14.3-5.4 7.8-3 6.3-4-6.5-4-13.1 0-15.8-.9-20.1-6.5-3.1-4.1-4.2-10.7-2.5-15.8 1.4-4 6.8-9.3 10.6-10.3 1.4-.3 2.5-1.1 2.5-1.8 0-.6-1.4-6.1-3.1-12.1-1.7-6.1-4.5-16.3-6.2-22.9l-3.2-11.9-9.8-11.1c-29.6-33.4-41.7-64.5-41.7-106.9 0-33.5 7.4-58.7 23.5-80.3 18-24.1 44.3-39.3 79.5-45.8 14.8-2.8 24.3-2.8 40 0zm37.4 339.8c6.7 2.8 10.7 11.1 9.2 19.1-.7 3.4-6.8 11.5-8.7 11.5-.9 0-17.5 6.3-21.4 8.1-1.1.5-9.9 3.8-19.5 7.4-9.6 3.6-18.4 6.9-19.5 7.5-1.1.5-3.7 1.6-5.7 2.4-2.1.8-3.8 1.9-3.8 2.3 0 .4 3 2.6 6.7 4.7l6.7 3.9 5-2.8c2.8-1.6 9.4-5.4 14.6-8.6 5.2-3.1 11.1-6.6 13-7.7 1.9-1.1 6.2-3.6 9.5-5.7 5.6-3.4 6.5-3.6 12.6-3.3 5.4.3 7.3.9 10.4 3.2 5.1 3.9 7.9 10.4 7.3 17.2-.8 9.9-2.3 11.2-36 31.5-37.7 22.6-35 22.1-53.8 11-6.9-4-13.7-8.2-15.2-9.2s-3-1.9-3.2-1.9c-1.2 0-27.4-16.6-31-19.7-5.9-5-7.6-8-7.6-14.1 0-11.2 2.8-13.5 29.6-23.6 12.1-4.6 29.1-11.1 37.9-14.5 28.4-11 49.2-18.9 51.1-19.4 3.8-.9 8.5-.7 11.8.7z"/><path d="M399.1 105.5c-15.5 5.8-30.4 20.2-41 39.8-3.6 6.6-3.8 8.7-1.3 11 2.8 2.5 6.8 2.1 9.7-1 1.4-1.5 2.5-3.2 2.5-3.6 0-.5 2.1-4.1 4.6-8 6.8-10.5 17.5-20.7 26-24.7 3.8-1.8 7.9-3.7 9.2-4.3 4.3-2 4.1-8.5-.4-10.5-1.4-.7-2.6-1.2-2.7-1.1-.1 0-3.1 1.1-6.6 2.4z"/></g></svg>