<svg xmlns="http://www.w3.org/2000/svg" viewBox="0 0 580 512"><g><path d="M259.5 11.5c-76.6 8.4-145.8 52.6-186.3 119.1-43.3 70.9-47.8 161.6-11.8 236.9 12.6 26.3 27.9 47.9 49.1 69.1 33 33.1 72.1 55.1 117.7 66.3 34.6 8.5 73 9.3 108.6 2.1 95.3-19.2 172.5-94.5 193.6-189 4.7-20.9 5.9-32.9 5.9-56 0-30-3.6-52.8-12.5-79.5C495.2 95.2 422.9 31.9 334 14.4c-21.6-4.2-51.4-5.4-74.5-2.9zm-8.5 94.4c35.6 6.5 66.5 20.2 93 41 9.2 7.2 11 9.3 11 12.8 0 4 .4 4.1 15.6 1.3 35.3-6.4 64.7-20.2 91.5-43.2 3.1-2.6 5.9-4.8 6.3-4.8.3 0 .6 43.9.6 97.4 0 105.7-.2 110.8-5.5 129.1-5.2 17.8-15.9 36.9-28.8 51.1-25.3 27.8-66.7 43.7-103.5 39.6-12.4-1.4-25.8-4.7-35.2-8.6-9.6-4.1-9.5-4.1-15.6-1.2-26.9 12.8-58.8 14.9-88.4 5.9-39.5-11.9-69.1-40.6-82.4-79.5-6.6-19.3-6.6-19.2-6.6-120.1V136l4.8-3.1c20.9-13.5 56.6-25.7 84.3-28.8 13.2-1.5 46.5-.5 58.9 1.8z"/><path d="M196.5 122.6c-24.1 2.8-44.6 8.9-65.4 19.4l-8.2 4.1.4 88.2c.3 85.6.4 88.4 2.4 96.5 7.9 31.2 27.5 56.1 55.1 69.7 11 5.4 15.5 6.9 28.9 9.6 16 3.2 33.5 2.1 50-3.2l6.2-2-10.2-10.2c-10.8-10.7-19.5-22.8-25.4-35.3l-3.4-7.2-7.7-.7c-27.5-2.5-51.1-12.8-70.7-30.8l-6-5.5 6.9-7.1 6.9-7 5.5 5c16 14.6 38.9 24.9 55.4 24.9 3.5 0 3.9-.2 3.2-1.8-.9-1.9-2.1-89.2-2.3-160L218 122l-9.2.1c-5.1.1-10.6.4-12.3.5zm-18.8 89.1c2.5 1.2 4.1 2.9 5.5 6.1 1.9 4.2 1.9 4.6.4 8.7-2.2 5.7-4.6 7.6-10.2 8.3-8.1.9-14.4-4.4-14.4-12 0-4.5 1.9-7.8 5.9-10.5s8-2.9 12.8-.6zm42.4-88.1c2 2.5 19.6 13.8 28.9 18.6 23.1 11.9 47.8 18.9 76.3 21.3 4.2.4 7.7.4 7.7.1 0-1.9-15.7-12.7-28-19.4-8.1-4.4-22.1-10.3-31.2-13.3-13.8-4.6-37.7-8.8-49.7-8.9-4.7 0-5.2.2-4 1.6zm213.4 35.9c-7.7 3.9-18 8.6-23 10.4-12.9 4.7-33.4 9.7-45 11.1-5.5.7-10.2 1.4-10.5 1.7-.3.2-.7 25.8-.8 56.7l-.4 56.3 7.9 1.3c21.4 3.4 42.1 13.5 57.3 27.8l7.1 6.7-7 7-7.1 6.9-5.2-5c-6.7-6.4-10.5-9.1-19.8-14.2-8.7-4.7-20.3-8.7-28.3-9.7l-5.7-.7v3.3c0 5.1-3.5 20.4-6.5 28.9-6.5 18.2-15.4 32-29.9 46.8-10.3 10.5-10.3 10.2.9 12.7 11 2.6 23.3 3.7 32 3 33.1-2.7 62-18.9 79.6-44.7 9.2-13.5 14-24.9 17-40.3 1.9-9.3 2-15.1 2.1-91.3 0-44.7-.1-81.4-.3-81.6-.2-.1-6.7 3-14.4 6.9zm-25.9 52.1c2.2 1 4 3.1 5.4 5.9 1.8 3.7 2 4.9 1 8.4-2.9 10.9-16.4 13.1-22.7 3.8-4.2-6.2-1.9-14.7 5-18.1 4.1-2 7-2 11.3 0z"/><path d="M239 216.7c-.1 31.8 0 66.1 0 76.3.1 19 1.3 35.7 2.7 37.1 1.1.9 13-2.2 21.2-5.7 3.6-1.5 10.3-5.1 14.7-8 9.6-6.2 21.9-12.6 28.7-14.8 6.4-2.2 22-5.6 25.2-5.6h2.5v-56.5c0-53.1-.1-56.5-1.7-56.5-1 0-7-.5-13.3-1.1-23.2-2.1-49.8-9.1-69.9-18.5-5.2-2.4-9.6-4.4-9.7-4.4-.2 0-.4 26-.4 57.7zm52.4-5.2c6.2 3 9 12.2 5.3 17.8-5.5 8.4-17 8.2-22.1-.5-3.4-5.7-.7-14 5.7-17.2 4-2 7-2 11.1-.1zm34.1 105.2c-13.2 3-24.6 8-36.5 15.8-3.6 2.3-9.2 5.6-12.5 7.3-6 3-23.7 9.2-26.2 9.2-3 0-.6 5.7 7.7 17.8 5.3 7.7 16.3 18.8 23.6 23.8l5.3 3.7 4.3-3.3c7.3-5.6 20.2-19.2 24.6-26 8.3-12.7 15.4-30.9 16.8-42.9l.7-6.1-2.9.1c-1.6.1-3.8.3-4.9.6z"/></g></svg>