<svg xmlns="http://www.w3.org/2000/svg" viewBox="0 0 600 589"><g transform="matrix(.1 0 0 -.1 0 589)"><path d="M2838 5659c-924-66-1763-549-2265-1304C130 3688-2 2850 216 2088c100-349 282-702 510-988 96-120 350-370 475-467C1936 62 2905-136 3815 96c503 129 956 382 1324 739 262 255 436 494 591 817 194 405 282 824 267 1273-21 599-227 1156-609 1637-96 122-318 346-438 442-592 474-1353 710-2112 655zm612-441c81-172 287-616 455-983 197-432 161-378 279-421 261-95 628-250 951-402 352-165 426-202 430-214 3-7-51-195-121-418-69-223-208-675-310-1005-107-348-200-631-221-675-28-59-56-95-127-166-99-98-182-157-322-227-305-153-878-294-1421-348l-122-12-68 55c-186 150-520 472-677 653-252 290-416 565-468 786l-20 85-76 45c-45 25-109 76-152 119-61 61-84 93-122 170-54 114-485 1061-674 1485-134 300-134 300-113 317 26 22 308 203 481 309 383 236 835 469 1148 592 240 94 574 206 905 302 160 46 293 84 296 84 3 1 34-59 69-131z"/><path d="M3095 4873c-233-74-663-220-765-261-364-146-728-337-1192-624-116-72-127-81-119-101 26-66 625-1386 666-1467 22-44 61-88 69-79 8 8 267 861 264 870-2 5-43-18-93-51-49-33-93-59-97-57-9 2-208 297-208 307 0 3 132 95 294 204l294 198 58 190c32 104 61 193 64 198 11 18 765-103 1119-181 74-16 136-27 139-25 4 5-116 272-301 671-113 243-105 235-192 208z"/><path d="M2597 3773c-5-9-463-1503-501-1637-43-146-35-203 54-381 123-247 383-556 741-880 145-132 150-135 186-130 357 50 616 101 841 165 166 48 259 83 383 146 116 58 160 88 222 150 54 56 51 46 227 619 56 182 160 517 231 747 71 229 129 419 129 423 0 15-505 242-814 366-450 180-791 271-1421 379-238 41-271 45-278 33zm531-1029c188-59 342-113 342-118 0-14-102-340-109-348-3-4-166 44-361 106-343 109-355 114-352 137 1 13 25 95 53 182 41 131 53 158 67 154 9-2 171-53 360-113zm967-295c171-56 324-105 342-110 18-6 30-15 28-22s-27-84-56-172c-28-88-55-164-59-169-6-6-685 206-698 219-9 8 110 355 121 355 7 0 152-46 322-101zm-1077-429c43-78 139-181 211-224 94-57 184-79 304-74 109 5 160 19 269 72l67 33 100-154c56-85 101-158 101-163 0-13-168-95-252-123-177-59-366-67-531-23-186 49-314 124-443 257-105 109-221 296-198 319 10 10 314 139 329 139 6 1 25-26 43-59z"/></g></svg>